<?xml version="1.0" encoding="UTF-8" standalone="no"?>
<svg width="25px" height="22px" viewBox="0 0 25 22" version="1.1" xmlns="http://www.w3.org/2000/svg" xmlns:xlink="http://www.w3.org/1999/xlink">
    <!-- Generator: Sketch 3.7.1 (28215) - http://www.bohemiancoding.com/sketch -->
    <title>Diamond</title>
    <desc>Created with Sketch.</desc>
    <defs></defs>
    <g id="Symbols" stroke="none" stroke-width="1" fill="none" fill-rule="evenodd">
        <g id="Units-4" transform="translate(-21.000000, -3.000000)" fill="#F5BB3D">
            <g id="Simbol-Diamond">
                <g transform="translate(21.000000, 3.000000)">
                    <g id="Diamond">
                        <path d="M24.9528201,6.80547367 C24.9404726,6.72569517 24.9152439,6.64759782 24.8845274,6.57240429 C24.8776677,6.55612764 24.8776677,6.53954533 24.8703506,6.52303943 C24.869436,6.52212244 24.868064,6.52028845 24.8676067,6.51937146 C24.8676067,6.51753747 24.8666921,6.51662047 24.8657774,6.51547423 L22.1050305,0.63830513 C22.098628,0.624779464 22.0867378,0.61262929 22.0794207,0.598874376 C22.0698171,0.58236848 22.0666159,0.562194606 22.0560213,0.545841541 C22.0349848,0.510078765 22.0061738,0.482263272 21.9814024,0.450397721 C21.95625,0.417615176 21.9333079,0.38223448 21.9054116,0.353196329 C21.864253,0.310097598 21.8170732,0.273341411 21.7690549,0.237502218 C21.738872,0.213660367 21.7104421,0.187296782 21.6775152,0.167963486 C21.6217226,0.134263947 21.5612805,0.110192847 21.4999238,0.0871915744 C21.4692835,0.0754998974 21.4395579,0.0576185092 21.4074695,0.0486778151 C21.3122713,0.0217793165 21.2134146,0.00641966251 21.1108994,0.00641966251 L12.4237043,0.00641966251 L4.840625,0.00641966251 C4.74405488,0.00641966251 4.65045732,0.019945328 4.559375,0.043787179 C4.52759146,0.052269376 4.49855183,0.068851689 4.46714939,0.0796263716 C4.41135671,0.10071724 4.35411585,0.119133541 4.30175305,0.149165104 C4.26829268,0.1684984 4.24085366,0.194327071 4.20967988,0.215494356 C4.16478659,0.247359907 4.1183689,0.277849966 4.0785061,0.316440142 C4.0503811,0.344179218 4.02797256,0.376961763 4.00297256,0.408215985 C3.97347561,0.442908934 3.93894817,0.474315988 3.9148628,0.513746742 L0.165625,6.39106868 C0.151676829,6.41399353 0.145045732,6.43997504 0.132393293,6.46427538 C0.121646341,6.48353226 0.103810976,6.50003816 0.0944359756,6.52112903 C0.0846036585,6.54321331 0.0841463415,6.56636741 0.0747713415,6.58745828 C0.0546493902,6.64133169 0.0386432927,6.69505228 0.0259908537,6.75083609 C0.0166158537,6.79508107 0.00861280488,6.83840905 0.00403963415,6.88204269 C-0.0012195122,6.93706235 -0.000762195122,6.99192917 0.00198170732,7.04748374 C0.00541158537,7.09272212 0.00861280488,7.13719635 0.0157012195,7.18121207 C0.0255335366,7.23531473 0.0425304878,7.28605508 0.059679878,7.33817092 C0.0752286585,7.38249231 0.0891768293,7.42673729 0.110060976,7.46853694 C0.116920732,7.4829796 0.119893293,7.4994855 0.126753049,7.51438666 C0.146417683,7.55106643 0.175457317,7.57979891 0.199542683,7.61281071 C0.21875,7.64146678 0.230411585,7.67157476 0.252362805,7.6972506 L11.584375,21.1164683 C11.7798018,21.3477037 12.0727134,21.5119985 12.3647104,21.5036691 C12.3683689,21.5036691 12.3721037,21.5055031 12.3745427,21.5055031 C12.3908537,21.5064201 12.4064024,21.5064201 12.4228659,21.5064201 L12.4233232,21.5064201 L12.4251524,21.5064201 C12.5230945,21.5064201 12.6192073,21.4880802 12.7116616,21.4633214 C12.7391006,21.4546099 12.763872,21.4458985 12.791311,21.4353531 C12.8595274,21.4115112 12.9259146,21.3794164 12.9890244,21.3417432 C13.010061,21.3293638 13.0324695,21.3169844 13.053125,21.3031531 C13.1277439,21.2512665 13.1977134,21.1916618 13.2581555,21.1196778 L24.7065549,7.70068932 C24.7211128,7.68326643 24.7294207,7.66217556 24.7422256,7.64375926 C24.7605183,7.62060516 24.7834604,7.60134828 24.7990091,7.57513753 C24.8154726,7.54923244 24.8237043,7.52011787 24.8374238,7.49237879 C24.8567073,7.45684526 24.8749238,7.42100607 24.8891768,7.38249231 C24.9106707,7.32655566 24.9253811,7.26977843 24.938186,7.21292479 C24.9464177,7.17433461 24.9556402,7.13765484 24.9592226,7.09914108 C24.9665396,7.03579206 24.9637957,6.97404778 24.9592226,6.91123367 C24.9564787,6.87409541 24.9582317,6.83940246 24.9528201,6.80547367 L24.9528201,6.80547367 Z" id="Shape"></path>
                    </g>
                </g>
            </g>
        </g>
    </g>
</svg>