<?xml version="1.0" encoding="utf-8"?>
<!-- Generator: Adobe Illustrator 16.0.0, SVG Export Plug-In . SVG Version: 6.00 Build 0)  -->
<!DOCTYPE svg PUBLIC "-//W3C//DTD SVG 1.1//EN" "http://www.w3.org/Graphics/SVG/1.1/DTD/svg11.dtd">
<svg version="1.1" id="Capa_1" xmlns="http://www.w3.org/2000/svg" xmlns:xlink="http://www.w3.org/1999/xlink" x="0px" y="0px"
	 width="14px" height="14px" viewBox="0 0 14 14" enable-background="new 0 0 14 14" xml:space="preserve">
<path fill="#FFFFFF" d="M7.891,7.032l5.918-5.945c0.254-0.256,0.254-0.64,0-0.895c-0.254-0.256-0.637-0.256-0.891,0L7,6.137
	L1.082,0.192c-0.255-0.256-0.637-0.256-0.891,0c-0.254,0.255-0.254,0.639,0,0.895l5.918,5.945l-5.918,5.945
	c-0.254,0.256-0.254,0.64,0,0.895C0.318,14,0.573,14,0.7,14c0.127,0,0.382,0,0.382-0.128L7,7.927l5.918,5.945
	C13.045,14,13.3,14,13.427,14c0.127,0,0.382,0,0.382-0.128c0.254-0.255,0.254-0.639,0-0.895L7.891,7.032z"/>
</svg>
