<?xml version="1.0" encoding="UTF-8" standalone="no"?>
<svg width="10px" height="10px" viewBox="0 0 10 10" version="1.1" xmlns="http://www.w3.org/2000/svg" xmlns:xlink="http://www.w3.org/1999/xlink">
    <!-- Generator: Sketch 3.7.1 (28215) - http://www.bohemiancoding.com/sketch -->
    <title>simbol-link</title>
    <desc>Created with Sketch.</desc>
    <defs></defs>
    <g id="Widget" stroke="none" stroke-width="1" fill="none" fill-rule="evenodd">
        <g id="Quest-Desplegada" transform="translate(-247.000000, -170.000000)" fill="#AEC25C">
            <g id="Quest-1" transform="translate(30.000000, 78.000000)">
                <g id="simbol-link" transform="translate(217.000000, 92.000000)">
                    <g id="next">
                        <g id="Group">
                            <path d="M8.40466102,0 L1.57838983,0 C0.707627119,0 0,0.707627119 0,1.57838983 L0,8.40466102 C0,9.27542373 0.707627119,9.98305085 1.57838983,9.98305085 L8.40466102,9.98305085 C9.27542373,9.98305085 9.98305085,9.27542373 9.98305085,8.40466102 L9.98305085,1.57838983 C9.98305085,0.709745763 9.27330508,0 8.40466102,0 L8.40466102,0 Z M9.41101695,8.40466102 C9.41101695,8.95974576 8.95974576,9.41101695 8.40466102,9.41101695 L1.57838983,9.41101695 C1.02330508,9.41101695 0.572033898,8.95974576 0.572033898,8.40466102 L0.572033898,1.57838983 C0.572033898,1.02330508 1.02330508,0.572033898 1.57838983,0.572033898 L8.40466102,0.572033898 C8.95974576,0.572033898 9.41101695,1.02330508 9.41101695,1.57838983 L9.41101695,8.40466102 L9.41101695,8.40466102 Z" id="Shape"></path>
                            <path d="M6.00847458,3.29661017 C5.89618644,3.18432203 5.71610169,3.18432203 5.60381356,3.29661017 C5.49152542,3.40889831 5.49152542,3.58898305 5.60381356,3.70127119 L6.61016949,4.70762712 L2.68220339,4.70762712 C2.52330508,4.70762712 2.39618644,4.83474576 2.39618644,4.99364407 C2.39618644,5.15254237 2.52330508,5.27966102 2.68220339,5.27966102 L6.61016949,5.27966102 L5.6059322,6.28389831 C5.49364407,6.39618644 5.49364407,6.57627119 5.6059322,6.68855932 C5.66101695,6.74364407 5.73516949,6.77330508 5.80720339,6.77330508 C5.87923729,6.77330508 5.95338983,6.74576271 6.00847458,6.68855932 L7.50211864,5.19491525 C7.61440678,5.08262712 7.61440678,4.90254237 7.50211864,4.79025424 L6.00847458,3.29661017 L6.00847458,3.29661017 Z" id="Shape"></path>
                        </g>
                    </g>
                </g>
            </g>
        </g>
    </g>
</svg>