<?xml version="1.0" encoding="UTF-8" standalone="no"?>
<svg width="20px" height="20px" viewBox="0 0 20 20" version="1.1" xmlns="http://www.w3.org/2000/svg" xmlns:xlink="http://www.w3.org/1999/xlink">
    <!-- Generator: Sketch 3.7.1 (28215) - http://www.bohemiancoding.com/sketch -->
    <title>simbolo-check-quest</title>
    <desc>Created with Sketch.</desc>
    <defs></defs>
    <g id="Widget" stroke="none" stroke-width="1" fill="none" fill-rule="evenodd">
        <g id="Quest-Desplegada" transform="translate(-99.000000, -162.000000)">
            <g id="Quest-1" transform="translate(30.000000, 78.000000)">
                <g id="simbolo-check-quest" transform="translate(69.000000, 84.000000)">
                    <g>
                        <g id="Capa_2" transform="translate(1.538462, 1.538462)" fill="#FFFFFF">
                            <circle id="Oval" cx="8.46153846" cy="8.46153846" r="8.07692308"></circle>
                        </g>
                        <g id="Capa_1" fill="#AEC25C">
                            <path d="M10,0.384615385 C4.69,0.384615385 0.384615385,4.68923077 0.384615385,10 C0.384615385,15.31 4.69,19.6153846 10,19.6153846 C15.31,19.6153846 19.6153846,15.31 19.6153846,10 C19.6153846,4.68923077 15.31,0.384615385 10,0.384615385 L10,0.384615385 Z M15.2692308,7.21153846 L9.45307692,13.7538462 C9.30923077,13.9153846 9.11076923,13.9976923 8.90923077,13.9976923 C8.74923077,13.9976923 8.58923077,13.9453846 8.45538462,13.8392308 L4.82076923,10.9307692 C4.50692308,10.6807692 4.45692308,10.2230769 4.70769231,9.90923077 C4.95769231,9.59538462 5.41615385,9.54461538 5.72923077,9.79538462 L8.82461538,12.2715385 L14.1823077,6.24461538 C14.4484615,5.94461538 14.9084615,5.91769231 15.2084615,6.18461538 C15.5076923,6.45230769 15.5361538,6.91153846 15.2692308,7.21153846 L15.2692308,7.21153846 Z" id="Shape"></path>
                        </g>
                    </g>
                </g>
            </g>
        </g>
    </g>
</svg>