<?xml version="1.0" encoding="UTF-8" standalone="no"?>
<svg width="25px" height="25px" viewBox="0 0 25 25" version="1.1" xmlns="http://www.w3.org/2000/svg" xmlns:xlink="http://www.w3.org/1999/xlink">
    <!-- Generator: Sketch 3.7.1 (28215) - http://www.bohemiancoding.com/sketch -->
    <title>simbolo-caducado</title>
    <desc>Created with Sketch.</desc>
    <defs></defs>
    <g id="Widget" stroke="none" stroke-width="1" fill="none" fill-rule="evenodd">
        <g id="Quest" transform="translate(-67.000000, -438.000000)">
            <g id="Quest-5" transform="translate(30.000000, 406.000000)">
                <g id="simbolo-caducado" transform="translate(37.000000, 32.000000)">
                    <g>
                        <circle id="Oval-6" fill="#FFFFFF" cx="12.5" cy="12.5" r="9.61538462"></circle>
                        <g id="Capa_2" transform="translate(0.961538, 1.923077)">
                            <circle id="Oval" cx="11.1692308" cy="10.6057692" r="10.4653846"></circle>
                        </g>
                        <g id="Capa_1" fill="#9E9E9E">
                            <path d="M12.5,0.480769231 C5.8625,0.480769231 0.480769231,5.86153846 0.480769231,12.5 C0.480769231,19.1375 5.8625,24.5192308 12.5,24.5192308 C19.1375,24.5192308 24.5192308,19.1375 24.5192308,12.5 C24.5192308,5.86153846 19.1375,0.480769231 12.5,0.480769231 L12.5,0.480769231 Z M18.6346154,17.8846154 C18.8634615,18.1153846 18.8634615,18.4625 18.6346154,18.6923077 C18.6346154,18.8076923 18.4067308,18.8076923 18.2913462,18.8076923 C18.1769231,18.8076923 17.9471154,18.8076923 17.8326923,18.6923077 L12.5,13.3346154 L7.16826923,18.6913462 C7.16826923,18.8067308 6.93846154,18.8067308 6.82403846,18.8067308 C6.70961538,18.8067308 6.47980769,18.8067308 6.36538462,18.6913462 C6.13653846,18.4615385 6.13653846,18.1144231 6.36538462,17.8836538 L11.6971154,12.5288462 L6.36538462,7.17211538 C6.13653846,6.94230769 6.13653846,6.59615385 6.36538462,6.36634615 C6.59423077,6.13557692 6.93846154,6.13557692 7.16826923,6.36634615 L12.5,11.7221154 L17.8326923,6.36634615 C18.0605769,6.13557692 18.4067308,6.13557692 18.6346154,6.36634615 C18.8634615,6.59615385 18.8634615,6.94230769 18.6346154,7.17211538 L13.3028846,12.5288462 L18.6346154,17.8846154 L18.6346154,17.8846154 Z" id="Shape"></path>
                        </g>
                    </g>
                </g>
            </g>
        </g>
    </g>
</svg>