<?xml version="1.0" encoding="UTF-8" standalone="no"?>
<svg width="25px" height="25px" viewBox="0 0 25 25" version="1.1" xmlns="http://www.w3.org/2000/svg" xmlns:xlink="http://www.w3.org/1999/xlink">
    <!-- Generator: Sketch 3.7.1 (28215) - http://www.bohemiancoding.com/sketch -->
    <title>simbolo-check</title>
    <desc>Created with Sketch.</desc>
    <defs></defs>
    <g id="Widget" stroke="none" stroke-width="1" fill="none" fill-rule="evenodd">
        <g id="Quest" transform="translate(-67.000000, -356.000000)">
            <g id="Quest-4" transform="translate(30.000000, 322.000000)">
                <g id="simbolo-check" transform="translate(37.000000, 34.000000)">
                    <g>
                        <g id="Capa_2" transform="translate(1.923077, 1.923077)" fill="#FFFFFF">
                            <circle id="Oval" cx="10.5769231" cy="10.5769231" r="10.0961538"></circle>
                        </g>
                        <g id="Capa_1" fill="#AEC25C">
                            <path d="M12.5,0.480769231 C5.8625,0.480769231 0.480769231,5.86153846 0.480769231,12.5 C0.480769231,19.1375 5.8625,24.5192308 12.5,24.5192308 C19.1375,24.5192308 24.5192308,19.1375 24.5192308,12.5 C24.5192308,5.86153846 19.1375,0.480769231 12.5,0.480769231 L12.5,0.480769231 Z M19.0865385,9.01442308 L11.8163462,17.1923077 C11.6365385,17.3942308 11.3884615,17.4971154 11.1365385,17.4971154 C10.9365385,17.4971154 10.7365385,17.4317308 10.5692308,17.2990385 L6.02596154,13.6634615 C5.63365385,13.3509615 5.57115385,12.7788462 5.88461538,12.3865385 C6.19711538,11.9942308 6.77019231,11.9307692 7.16153846,12.2442308 L11.0307692,15.3394231 L17.7278846,7.80576923 C18.0605769,7.43076923 18.6355769,7.39711538 19.0105769,7.73076923 C19.3846154,8.06538462 19.4201923,8.63942308 19.0865385,9.01442308 L19.0865385,9.01442308 Z" id="Shape"></path>
                        </g>
                    </g>
                </g>
            </g>
        </g>
    </g>
</svg>