<?xml version="1.0" encoding="UTF-8" standalone="no"?>
<svg width="25px" height="25px" viewBox="0 0 25 25" version="1.1" xmlns="http://www.w3.org/2000/svg" xmlns:xlink="http://www.w3.org/1999/xlink">
    <!-- Generator: Sketch 3.7.1 (28215) - http://www.bohemiancoding.com/sketch -->
    <title>Simbol-block</title>
    <desc>Created with Sketch.</desc>
    <defs></defs>
    <g id="Widget" stroke="none" stroke-width="1" fill="none" fill-rule="evenodd">
        <g id="Quest" transform="translate(-66.000000, -274.000000)">
            <g id="Quest-3" transform="translate(30.000000, 242.000000)">
                <g id="Simbol-block" transform="translate(36.000000, 32.000000)">
                    <g id="simbolo-block">
                        <g id="Capa_2" transform="translate(1.923077, 1.923077)" fill="#FFFFFF">
                            <circle id="Oval" cx="10.5903846" cy="10.5769231" r="10.3711538"></circle>
                        </g>
                        <g id="Capa_1" fill="#F95F63">
                            <g id="Group">
                                <path d="M12.5134615,6.79326923 C11.3855769,6.79326923 10.4701923,7.72211538 10.4701923,8.85 L10.4701923,10.1798077 L14.5567308,10.1798077 L14.5567308,8.85 C14.5567308,7.72211538 13.6423077,6.79326923 12.5134615,6.79326923 L12.5134615,6.79326923 Z" id="Shape"></path>
                                <path d="M12.5,0.480769231 C5.8625,0.480769231 0.480769231,5.86153846 0.480769231,12.5 C0.480769231,19.1375 5.8625,24.5192308 12.5,24.5192308 C19.1375,24.5192308 24.5192308,19.1375 24.5192308,12.5 C24.5192308,5.86153846 19.1375,0.480769231 12.5,0.480769231 L12.5,0.480769231 Z M17.8019231,18.1394231 C17.8019231,18.8701923 17.2115385,19.4346154 16.4817308,19.4346154 L8.51923077,19.4346154 C7.78942308,19.4346154 7.225,18.8701923 7.225,18.1394231 L7.225,11.5048077 C7.225,10.775 7.78846154,10.1798077 8.51923077,10.1798077 L9.14807692,10.1798077 L9.14807692,8.85 C9.14807692,6.99230769 10.5951923,5.53269231 12.4538462,5.53269231 C14.3125,5.53269231 15.7596154,6.99326923 15.7596154,8.85 L15.7596154,10.1798077 L16.4826923,10.1798077 C17.2125,10.1798077 17.8028846,10.775 17.8028846,11.5048077 L17.8028846,18.1394231 L17.8019231,18.1394231 Z" id="Shape"></path>
                                <path d="M12.5,13.4951923 C11.7701923,13.4951923 11.1730769,14.0923077 11.1730769,14.8221154 C11.1730769,15.5519231 11.7701923,16.15 12.5,16.15 C13.2298077,16.15 13.8278846,15.5519231 13.8278846,14.8221154 C13.8278846,14.0923077 13.2298077,13.4951923 12.5,13.4951923 L12.5,13.4951923 Z" id="Shape"></path>
                            </g>
                        </g>
                    </g>
                </g>
            </g>
        </g>
    </g>
</svg>