<?xml version="1.0" encoding="UTF-8" standalone="no"?>
<svg width="108px" height="45px" viewBox="0 0 108 45" version="1.1" xmlns="http://www.w3.org/2000/svg" xmlns:xlink="http://www.w3.org/1999/xlink" xmlns:sketch="http://www.bohemiancoding.com/sketch/ns">
    <!-- Generator: Sketch 3.4 (15575) - http://www.bohemiancoding.com/sketch -->
    <title>no-data</title>
    <desc>Created with Sketch.</desc>
    <defs></defs>
    <g id="DASHBOARD" stroke="none" stroke-width="1" fill="none" fill-rule="evenodd" sketch:type="MSPage">
        <g id="Empty-data" sketch:type="MSArtboardGroup" transform="translate(-149.000000, -140.000000)">
            <g id="no-data" sketch:type="MSLayerGroup" transform="translate(149.000000, 140.000000)">
                <g id="details" transform="translate(0.000000, 4.000000)" sketch:type="MSShapeGroup">
                    <g id="Group" transform="translate(86.000000, 5.000000)">
                        <path d="M18.9146751,15.1178423 L18.6530274,14.2053682 C18.5935653,13.9979992 18.3627349,13.8662218 18.1426956,13.929317 C17.9290915,13.990567 17.7943854,14.2183022 17.8561946,14.4338564 L18.1178423,15.3463304 L17.2053682,15.6079782 C16.9979992,15.6674403 16.8662218,15.8982706 16.929317,16.1183099 C16.990567,16.3319141 17.2183022,16.4666202 17.4338564,16.404811 L18.3463304,16.1431633 L18.6079782,17.0556373 C18.6674403,17.2630063 18.8982706,17.3947838 19.1183099,17.3316885 C19.3319141,17.2704385 19.4666202,17.0427033 19.404811,16.8271492 L19.1431633,15.9146751 L20.0556373,15.6530274 C20.2630063,15.5935653 20.3947838,15.3627349 20.3316885,15.1426956 C20.2704385,14.9290915 20.0427033,14.7943854 19.8271492,14.8561946 L18.9146751,15.1178423 Z" id="Rectangle-875-Copy-2" stroke="#FFE293"></path>
                        <path d="M13.985,1.99739205 L13.6654583,0.883017947 C13.5870111,0.609439882 13.3009161,0.446112704 13.0281957,0.524314021 C12.7634512,0.600228287 12.5986204,0.88990194 12.6778504,1.16620996 L12.997392,2.28058406 L11.8830179,2.6001257 C11.6094399,2.67857294 11.4461127,2.96466796 11.524314,3.23738836 C11.6002283,3.50213287 11.8899019,3.66696368 12.16621,3.58773363 L13.2805841,3.268192 L13.6001257,4.3825661 C13.6785729,4.65614416 13.964668,4.81947134 14.2373884,4.74127002 C14.5021329,4.66535576 14.6669637,4.3756821 14.5877336,4.09937408 L14.268192,2.98499998 L15.3825661,2.66545835 C15.6561442,2.5870111 15.8194713,2.30091608 15.74127,2.02819568 C15.6653558,1.76345117 15.3756821,1.59862037 15.0993741,1.67785042 L13.985,1.99739205 Z" id="Rectangle-875-Copy-3" fill="#FFE293" transform="translate(13.632792, 2.632792) rotate(-254.000000) translate(-13.632792, -2.632792) "></path>
                        <path d="M2.64516118,5.14874455 L2.48215801,4.58028493 C2.44511388,4.45109671 2.30130952,4.36900104 2.16422785,4.40830858 C2.03115523,4.44646654 1.94723507,4.58834266 1.98574138,4.72263011 L2.14874455,5.29108973 L1.58028493,5.4540929 C1.45109671,5.49113702 1.36900104,5.63494138 1.40830858,5.77202305 C1.44646654,5.90509567 1.58834266,5.98901584 1.72263011,5.95050953 L2.29108973,5.78750636 L2.4540929,6.35596597 C2.49113702,6.4851542 2.63494138,6.56724986 2.77202305,6.52794233 C2.90509567,6.48978436 2.98901584,6.34790825 2.95050953,6.21362079 L2.78750636,5.64516118 L3.35596597,5.48215801 C3.4851542,5.44511388 3.56724986,5.30130952 3.52794233,5.16422785 C3.48978436,5.03115523 3.34790825,4.94723507 3.21362079,4.98574138 L2.64516118,5.14874455 Z" id="Rectangle-875-Copy-4" fill="#FFE293" transform="translate(2.468125, 5.468125) rotate(-211.000000) translate(-2.468125, -5.468125) "></path>
                        <path d="M14.6448884,26.1484718 L14.4818853,25.5800122 C14.4448411,25.450824 14.3010368,25.3687283 14.1639551,25.4080358 C14.0308825,25.4461938 13.9469623,25.5880699 13.9854686,25.7223574 L14.1484718,26.290817 L13.5800122,26.4538202 C13.450824,26.4908643 13.3687283,26.6346686 13.4080358,26.7717503 C13.4461938,26.9048229 13.5880699,26.9887431 13.7223574,26.9502368 L14.290817,26.7872336 L14.4538202,27.3556932 C14.4908643,27.4848815 14.6346686,27.5669771 14.7717503,27.5276696 C14.9048229,27.4895116 14.9887431,27.3476355 14.9502368,27.213348 L14.7872336,26.6448884 L15.3556932,26.4818853 C15.4848815,26.4448411 15.5669771,26.3010368 15.5276696,26.1639551 C15.4895116,26.0308825 15.3476355,25.9469623 15.213348,25.9854686 L14.6448884,26.1484718 Z" id="Rectangle-875-Copy-7" fill="#FFE293" transform="translate(14.467853, 26.467853) rotate(-211.000000) translate(-14.467853, -26.467853) "></path>
                        <path d="M2.61228069,14.2497317 L2.61228069,14.2497317 L1.47535603,15.0673562 C0.774101141,15.5716669 0.861347377,16.2291053 1.65230585,16.5486732 L3.23691767,17.188898 C4.03165207,17.5099915 4.54556763,17.0864269 4.39321397,16.2462474 L4.14334858,14.8683232 C3.98923166,14.0184199 3.30551248,13.7511908 2.61228069,14.2497317 L2.61228069,14.2497317 Z M2.02842808,13.437872 L2.02842808,13.437872 C3.31952333,12.5093749 4.84234182,13.1184376 5.12730212,14.6898984 L5.37716751,16.0678225 C5.67004265,17.682931 4.38728634,18.7322118 2.86231108,18.1160818 L1.27769925,17.4758571 C-0.245007181,16.8606438 -0.447834638,15.2186877 0.891503421,14.2554966 L2.02842808,13.437872 Z" id="Shape" fill="#FFE293"></path>
                        <path d="M7,25.2 C7.6627417,25.2 8.2,24.6627417 8.2,24 C8.2,23.3372583 7.6627417,22.8 7,22.8 C6.3372583,22.8 5.8,23.3372583 5.8,24 C5.8,24.6627417 6.3372583,25.2 7,25.2 L7,25.2 Z M7,26 L7,26 C5.8954305,26 5,25.1045695 5,24 C5,22.8954305 5.8954305,22 7,22 C8.1045695,22 9,22.8954305 9,24 C9,25.1045695 8.1045695,26 7,26 L7,26 Z" id="Shape" fill="#FFE293"></path>
                    </g>
                    <g id="Group">
                        <path d="M6.8895035,1.16325312 L6.65103221,0.3316049 C6.59683718,0.142604389 6.38645348,0.0224996178 6.18590498,0.0800059759 C5.99122165,0.135830522 5.86844766,0.343393238 5.92478183,0.539853845 L6.16325312,1.37150207 L5.3316049,1.60997336 C5.14260439,1.66416838 5.02249962,1.87455208 5.08000598,2.07510059 C5.13583052,2.26978391 5.34339324,2.3925579 5.53985384,2.33622373 L6.37150207,2.09775244 L6.60997336,2.92940066 C6.66416838,3.11840117 6.87455208,3.23850595 7.07510059,3.18099959 C7.26978391,3.12517504 7.3925579,2.91761233 7.33622373,2.72115172 L7.09775244,1.8895035 L7.92940066,1.65103221 C8.11840117,1.59683718 8.23850595,1.38645348 8.18099959,1.18590498 C8.12517504,0.991221648 7.91761233,0.868447659 7.72115172,0.924781831 L6.8895035,1.16325312 Z" id="Rectangle-875" stroke="#FFE293"></path>
                        <path d="M18.985,7.99739205 L18.6654583,6.88301795 C18.5870111,6.60943988 18.3009161,6.4461127 18.0281957,6.52431402 C17.7634512,6.60022829 17.5986204,6.88990194 17.6778504,7.16620996 L17.997392,8.28058406 L16.8830179,8.6001257 C16.6094399,8.67857294 16.4461127,8.96466796 16.524314,9.23738836 C16.6002283,9.50213287 16.8899019,9.66696368 17.16621,9.58773363 L18.2805841,9.268192 L18.6001257,10.3825661 C18.6785729,10.6561442 18.964668,10.8194713 19.2373884,10.74127 C19.5021329,10.6653558 19.6669637,10.3756821 19.5877336,10.0993741 L19.268192,8.98499998 L20.3825661,8.66545835 C20.6561442,8.5870111 20.8194713,8.30091608 20.74127,8.02819568 C20.6653558,7.76345117 20.3756821,7.59862037 20.0993741,7.67785042 L18.985,7.99739205 Z" id="Rectangle-875-Copy-9" fill="#FFE293" transform="translate(18.632792, 8.632792) rotate(-254.000000) translate(-18.632792, -8.632792) "></path>
                        <path d="M10.6451612,31.1487445 L10.482158,30.5802849 C10.4451139,30.4510967 10.3013095,30.369001 10.1642279,30.4083086 C10.0311552,30.4464665 9.94723507,30.5883427 9.98574138,30.7226301 L10.1487445,31.2910897 L9.58028493,31.4540929 C9.45109671,31.491137 9.36900104,31.6349414 9.40830858,31.7720231 C9.44646654,31.9050957 9.58834266,31.9890158 9.72263011,31.9505095 L10.2910897,31.7875064 L10.4540929,32.355966 C10.491137,32.4851542 10.6349414,32.5672499 10.7720231,32.5279423 C10.9050957,32.4897844 10.9890158,32.3479082 10.9505095,32.2136208 L10.7875064,31.6451612 L11.355966,31.482158 C11.4851542,31.4451139 11.5672499,31.3013095 11.5279423,31.1642279 C11.4897844,31.0311552 11.3479082,30.9472351 11.2136208,30.9857414 L10.6451612,31.1487445 Z" id="Rectangle-875-Copy-5" fill="#FFE293" transform="translate(10.468125, 31.468125) rotate(-211.000000) translate(-10.468125, -31.468125) "></path>
                        <path d="M12.6451612,14.1487445 L12.482158,13.5802849 C12.4451139,13.4510967 12.3013095,13.369001 12.1642279,13.4083086 C12.0311552,13.4464665 11.9472351,13.5883427 11.9857414,13.7226301 L12.1487445,14.2910897 L11.5802849,14.4540929 C11.4510967,14.491137 11.369001,14.6349414 11.4083086,14.7720231 C11.4464665,14.9050957 11.5883427,14.9890158 11.7226301,14.9505095 L12.2910897,14.7875064 L12.4540929,15.355966 C12.491137,15.4851542 12.6349414,15.5672499 12.7720231,15.5279423 C12.9050957,15.4897844 12.9890158,15.3479082 12.9505095,15.2136208 L12.7875064,14.6451612 L13.355966,14.482158 C13.4851542,14.4451139 13.5672499,14.3013095 13.5279423,14.1642279 C13.4897844,14.0311552 13.3479082,13.9472351 13.2136208,13.9857414 L12.6451612,14.1487445 Z" id="Rectangle-875-Copy-6" fill="#FFE293" transform="translate(12.468125, 14.468125) rotate(-211.000000) translate(-12.468125, -14.468125) "></path>
                        <path d="M1.066792,20.8903311 L1.066792,20.8903311 L1.59173558,22.2578559 C1.78913735,22.7721051 2.37207607,23.0349674 2.89033111,22.8360279 L4.2578559,22.3110843 C4.77210509,22.1136825 5.03496735,21.5307438 4.83602788,21.0124888 L4.3110843,19.644964 C4.11368253,19.1307148 3.5307438,18.8678525 3.01248877,19.066792 L1.64496398,19.5917356 C1.13071478,19.7891374 0.867852526,20.3720761 1.066792,20.8903311 L1.066792,20.8903311 Z M0.133211569,21.2486991 L0.133211569,21.2486991 C-0.263356128,20.2156049 0.25597543,19.0537733 1.28659603,18.6581552 L2.65412082,18.1332116 C3.68721499,17.7366439 4.84904654,18.2559754 5.24466472,19.286596 L5.76960831,20.6541208 C6.166176,21.687215 5.64684445,22.8490465 4.61622385,23.2446647 L3.24869906,23.7696083 C2.21560489,24.166176 1.05377333,23.6468444 0.658155154,22.6162239 L0.133211569,21.2486991 Z" id="Shape" fill="#FFE293"></path>
                        <path d="M23,25 C23.5522847,25 24,24.5522847 24,24 C24,23.4477153 23.5522847,23 23,23 C22.4477153,23 22,23.4477153 22,24 C22,24.5522847 22.4477153,25 23,25 L23,25 Z M23,26 L23,26 C21.8954305,26 21,25.1045695 21,24 C21,22.8954305 21.8954305,22 23,22 C24.1045695,22 25,22.8954305 25,24 C25,25.1045695 24.1045695,26 23,26 L23,26 Z" id="Shape" fill="#FFE293"></path>
                    </g>
                </g>
                <ellipse id="shadow" opacity="0.347073228" fill="#8899AA" sketch:type="MSShapeGroup" cx="55.4172359" cy="41.6305028" rx="25" ry="2.63050278"></ellipse>
                <g id="folder-copy-2" transform="translate(29.000000, 4.000000)" sketch:type="MSShapeGroup">
                    <path d="M1.11275674,1.65617668 L1.11275674,1.65617668 L1.11275674,28.5979986 C1.11275674,28.9088725 1.34575221,29.1631461 1.6309247,29.1631461 L22.2510212,29.1631461 C22.5372307,29.1631461 22.7691892,28.9115527 22.7691892,28.6028103 L22.7691892,7.25860216 L22.9198317,7.65518572 L16.7528305,0.926170463 L17.1178173,1.09102924 L1.63057054,1.09102924 C1.34265519,1.09102924 1.11275674,1.3422514 1.11275674,1.65617668 L1.11275674,1.65617668 Z" id="Path" fill="#FFFFFF"></path>
                    <path d="M1.11275674,1.65617668 L1.11275674,1.65617668 L1.11275674,28.5979986 C1.11275674,28.9088725 1.34575221,29.1631461 1.6309247,29.1631461 L22.2510212,29.1631461 C22.5372307,29.1631461 22.7691892,28.9115527 22.7691892,28.6028103 L22.7691892,7.25860216 L22.9198317,7.65518572 L16.7528305,0.926170463 L17.1178173,1.09102924 L1.63057054,1.09102924 C1.34265519,1.09102924 1.11275674,1.3422514 1.11275674,1.65617668 L1.11275674,1.65617668 Z M0.597127397,1.65617668 C0.597127397,1.03397832 1.05622793,0.529586898 1.63057054,0.529586898 L17.1178173,0.529586898 L23.2848185,7.25860216 L23.2848185,28.6028103 C23.2848185,29.2223512 22.8213424,29.7245884 22.2510212,29.7245884 L1.6309247,29.7245884 C1.05997422,29.7245884 0.597127397,29.2178545 0.597127397,28.5979986 L0.597127397,1.65617668 L0.597127397,1.65617668 Z" id="Shape" fill="#8899AA"></path>
                    <path d="M17.1513098,1.20509146 L17.1513098,1.20509146 L17.1513098,0.643649124 L17.3023342,0.575534747 L17.6669392,0.972534431 L17.6669392,6.02072625 C17.6669392,6.3325713 17.9003513,6.5869578 18.1869669,6.5869578 L22.8232326,6.5869578 L23.1878376,6.98395749 L23.1252813,7.14840014 L22.6096519,7.14840014 L17.1513098,1.20509146 Z M17.1513098,0.411092094 L23.3388619,7.14840014 L18.1869669,7.14840014 C17.6149893,7.14840014 17.1513098,6.64200702 17.1513098,6.02072625 L17.1513098,0.411092094 L17.1513098,0.411092094 Z" id="Shape" fill="#8899AA"></path>
                    <g id="Rectangle-879-+-Rectangle-879-Copy-+-Oval-432" transform="translate(6.750000, 11.842105)" fill="#8899AA">
                        <ellipse id="Oval-438" cx="1.02272727" cy="0.789473684" rx="0.767045455" ry="0.789473684"></ellipse>
                        <ellipse id="Oval-438-Copy" cx="10.4829545" cy="0.789473684" rx="0.767045455" ry="0.789473684"></ellipse>
                        <path d="M10.2795592,4.29913173 C10.2815,4.30092857 10.2834344,4.30272679 10.2853624,4.30452637 C9.22982978,5.49250734 7.57733476,6.25730994 5.71987246,6.25730994 C3.86241015,6.25730994 2.20991513,5.49250734 1.15438256,4.30452637 C1.1563105,4.30272679 1.15824487,4.30092857 1.16018568,4.29913173 C1.07593137,4.23481818 1.02272727,4.14036779 1.02272727,4.03508772 C1.02272727,3.8413036 1.202983,3.68421053 1.42533972,3.68421053 C1.58168244,3.68421053 1.71721156,3.76187312 1.78390423,3.87534631 C1.7856381,3.87444512 1.78737386,3.87354454 1.7891115,3.87264457 C2.6972582,4.89634978 4.12023167,5.55555556 5.71987246,5.55555556 C7.31951324,5.55555556 8.74248672,4.89634978 9.65063341,3.87264457 C9.65237105,3.87354454 9.65410681,3.87444512 9.65584068,3.87534631 C9.72253335,3.76187312 9.85806248,3.68421053 10.0144052,3.68421053 C10.2367619,3.68421053 10.4170176,3.8413036 10.4170176,4.03508772 C10.4170176,4.14036779 10.3638135,4.23481818 10.2795592,4.29913173 Z" id="Oval-432"></path>
                    </g>
                </g>
                <g id="folder-copy-3" transform="translate(59.000000, 4.000000)" sketch:type="MSShapeGroup">
                    <path d="M1.11275674,1.65617668 L1.11275674,1.65617668 L1.11275674,28.5979986 C1.11275674,28.9088725 1.34575221,29.1631461 1.6309247,29.1631461 L22.2510212,29.1631461 C22.5372307,29.1631461 22.7691892,28.9115527 22.7691892,28.6028103 L22.7691892,7.25860216 L22.9198317,7.65518572 L16.7528305,0.926170463 L17.1178173,1.09102924 L1.63057054,1.09102924 C1.34265519,1.09102924 1.11275674,1.3422514 1.11275674,1.65617668 L1.11275674,1.65617668 Z" id="Path" fill="#FFFFFF"></path>
                    <path d="M1.11275674,1.65617668 L1.11275674,1.65617668 L1.11275674,28.5979986 C1.11275674,28.9088725 1.34575221,29.1631461 1.6309247,29.1631461 L22.2510212,29.1631461 C22.5372307,29.1631461 22.7691892,28.9115527 22.7691892,28.6028103 L22.7691892,7.25860216 L22.9198317,7.65518572 L16.7528305,0.926170463 L17.1178173,1.09102924 L1.63057054,1.09102924 C1.34265519,1.09102924 1.11275674,1.3422514 1.11275674,1.65617668 L1.11275674,1.65617668 Z M0.597127397,1.65617668 C0.597127397,1.03397832 1.05622793,0.529586898 1.63057054,0.529586898 L17.1178173,0.529586898 L23.2848185,7.25860216 L23.2848185,28.6028103 C23.2848185,29.2223512 22.8213424,29.7245884 22.2510212,29.7245884 L1.6309247,29.7245884 C1.05997422,29.7245884 0.597127397,29.2178545 0.597127397,28.5979986 L0.597127397,1.65617668 L0.597127397,1.65617668 Z" id="Shape" fill="#8899AA"></path>
                    <path d="M17.1513098,1.20509146 L17.1513098,1.20509146 L17.1513098,0.643649124 L17.3023342,0.575534747 L17.6669392,0.972534431 L17.6669392,6.02072625 C17.6669392,6.3325713 17.9003513,6.5869578 18.1869669,6.5869578 L22.8232326,6.5869578 L23.1878376,6.98395749 L23.1252813,7.14840014 L22.6096519,7.14840014 L17.1513098,1.20509146 Z M17.1513098,0.411092094 L23.3388619,7.14840014 L18.1869669,7.14840014 C17.6149893,7.14840014 17.1513098,6.64200702 17.1513098,6.02072625 L17.1513098,0.411092094 L17.1513098,0.411092094 Z" id="Shape" fill="#8899AA"></path>
                    <g id="Rectangle-879-+-Rectangle-879-Copy-+-Oval-432" transform="translate(6.750000, 11.842105)" fill="#8899AA">
                        <ellipse id="Oval-438" cx="1.02272727" cy="0.789473684" rx="0.767045455" ry="0.789473684"></ellipse>
                        <ellipse id="Oval-438-Copy" cx="10.4829545" cy="0.789473684" rx="0.767045455" ry="0.789473684"></ellipse>
                        <path d="M10.2795592,4.29913173 C10.2815,4.30092857 10.2834344,4.30272679 10.2853624,4.30452637 C9.22982978,5.49250734 7.57733476,6.25730994 5.71987246,6.25730994 C3.86241015,6.25730994 2.20991513,5.49250734 1.15438256,4.30452637 C1.1563105,4.30272679 1.15824487,4.30092857 1.16018568,4.29913173 C1.07593137,4.23481818 1.02272727,4.14036779 1.02272727,4.03508772 C1.02272727,3.8413036 1.202983,3.68421053 1.42533972,3.68421053 C1.58168244,3.68421053 1.71721156,3.76187312 1.78390423,3.87534631 C1.7856381,3.87444512 1.78737386,3.87354454 1.7891115,3.87264457 C2.6972582,4.89634978 4.12023167,5.55555556 5.71987246,5.55555556 C7.31951324,5.55555556 8.74248672,4.89634978 9.65063341,3.87264457 C9.65237105,3.87354454 9.65410681,3.87444512 9.65584068,3.87534631 C9.72253335,3.76187312 9.85806248,3.68421053 10.0144052,3.68421053 C10.2367619,3.68421053 10.4170176,3.8413036 10.4170176,4.03508772 C10.4170176,4.14036779 10.3638135,4.23481818 10.2795592,4.29913173 Z" id="Oval-432"></path>
                    </g>
                </g>
                <g id="folder-copy" transform="translate(39.000000, 0.000000)" sketch:type="MSShapeGroup">
                    <path d="M1.48367565,2.0978238 L1.48367565,2.0978238 L1.48367565,36.2241316 C1.48367565,36.6179052 1.79433628,36.9399851 2.17456627,36.9399851 L29.6680283,36.9399851 C30.0496409,36.9399851 30.3589189,36.6213001 30.3589189,36.2302263 L30.3589189,9.1942294 L30.5597757,9.69656858 L22.3371074,1.17314925 L22.8237564,1.38197036 L2.17409405,1.38197036 C1.79020692,1.38197036 1.48367565,1.70018511 1.48367565,2.0978238 L1.48367565,2.0978238 Z" id="Path" fill="#FFFFFF"></path>
                    <path d="M1.48367565,2.0978238 L1.48367565,2.0978238 L1.48367565,36.2241316 C1.48367565,36.6179052 1.79433628,36.9399851 2.17456627,36.9399851 L29.6680283,36.9399851 C30.0496409,36.9399851 30.3589189,36.6213001 30.3589189,36.2302263 L30.3589189,9.1942294 L30.5597757,9.69656858 L22.3371074,1.17314925 L22.8237564,1.38197036 L2.17409405,1.38197036 C1.79020692,1.38197036 1.48367565,1.70018511 1.48367565,2.0978238 L1.48367565,2.0978238 Z M0.796169863,2.0978238 C0.796169863,1.30970588 1.40830391,0.670810071 2.17409405,0.670810071 L22.8237564,0.670810071 L31.0464247,9.1942294 L31.0464247,36.2302263 C31.0464247,37.0149782 30.4284566,37.6511453 29.6680283,37.6511453 L2.17456627,37.6511453 C1.41329896,37.6511453 0.796169863,37.0092824 0.796169863,36.2241316 L0.796169863,2.0978238 L0.796169863,2.0978238 Z" id="Shape" fill="#8899AA"></path>
                    <path d="M22.8684131,1.52644918 L22.8684131,1.52644918 L22.8684131,0.815288891 L23.0697789,0.72901068 L23.5559189,1.23187695 L23.5559189,7.62625325 C23.5559189,8.02125698 23.867135,8.34347988 24.2492892,8.34347988 L30.4309768,8.34347988 L30.9171168,8.84634615 L30.8337084,9.05464018 L30.1462026,9.05464018 L22.8684131,1.52644918 Z M22.8684131,0.520716652 L31.1184826,9.05464018 L24.2492892,9.05464018 C23.4866524,9.05464018 22.8684131,8.41320889 22.8684131,7.62625325 L22.8684131,0.520716652 L22.8684131,0.520716652 Z" id="Shape" fill="#8899AA"></path>
                    <g id="Rectangle-879-+-Rectangle-879-Copy-+-Oval-432" transform="translate(9.000000, 15.000000)" fill="#8899AA">
                        <ellipse id="Oval-438" cx="1.36363636" cy="1" rx="1.02272727" ry="1"></ellipse>
                        <ellipse id="Oval-438-Copy" cx="13.9772727" cy="1" rx="1.02272727" ry="1"></ellipse>
                        <path d="M13.706079,5.44556686 C13.7086667,5.44784286 13.7112459,5.4501206 13.7138165,5.45240007 C12.3064397,6.95717597 10.103113,7.92592593 7.62649661,7.92592593 C5.1498802,7.92592593 2.94655351,6.95717597 1.53917675,5.45240007 C1.54174733,5.4501206 1.5443265,5.44784286 1.54691424,5.44556686 C1.43457516,5.36410302 1.36363636,5.24446587 1.36363636,5.11111111 C1.36363636,4.86565122 1.60397734,4.66666667 1.90045296,4.66666667 C2.10890992,4.66666667 2.28961542,4.76503928 2.37853898,4.908772 C2.3808508,4.90763049 2.38316514,4.90648975 2.385482,4.90534979 C3.59634426,6.20204305 5.49364223,7.03703704 7.62649661,7.03703704 C9.75935099,7.03703704 11.656649,6.20204305 12.8675112,4.90534979 C12.8698281,4.90648975 12.8721424,4.90763049 12.8744542,4.908772 C12.9633778,4.76503928 13.1440833,4.66666667 13.3525403,4.66666667 C13.6490159,4.66666667 13.8893569,4.86565122 13.8893569,5.11111111 C13.8893569,5.24446587 13.8184181,5.36410302 13.706079,5.44556686 Z" id="Oval-432"></path>
                    </g>
                </g>
            </g>
        </g>
    </g>
</svg>