<?xml version="1.0" standalone="no"?>
<!DOCTYPE svg PUBLIC "-//W3C//DTD SVG 1.1//EN" "http://www.w3.org/Graphics/SVG/1.1/DTD/svg11.dtd">
<svg xmlns="http://www.w3.org/2000/svg">
<metadata>Generated by Fontastic.me</metadata>
<defs>
<font id="hooptap" horiz-adv-x="512">
<font-face font-family="hooptap" units-per-em="512" ascent="480" descent="-32"/>
<missing-glyph horiz-adv-x="512" />

<glyph glyph-name="action" unicode="&#97;" d="M128 512l0-282 77 0 0-230 179 307-102 0 102 205z"/>
<glyph glyph-name="client" unicode="&#98;" d="M308 446l179 0c13 0 25-11 25-25l0-366c0-31-30-42-61-42l-402 0c-30 0-49 11-49 42l0 366c0 14 11 25 25 25l180 0c0 1 0 1 0 1 0 29 23 52 51 52 29 0 52-23 52-52 0 0 0 0 0-1z m-70-359l-183 0 0 206 183 0z m219 0l-183 0 0 38 183 0z m0 56l-183 0 0 38 183 0z m0 56l-183 0 0 38 183 0z m0 56l-183 0 0 38 183 0z m-201 165c15 0 27 12 27 27 0 15-12 27-27 27-14 0-26-12-26-27 0-15 12-27 26-27z m201-90l-402 0 0 56 402 0z"/>
<glyph glyph-name="lesson" unicode="&#99;" d="M303 107l45-55c8-8 3-19-8-24-10-5-27-3-32 5l-62 74-8 0-59-71c-6-8-22-11-33-5-11 5-16 13-8 23l46 53-156 0c-16 0-28 13-28 29l0 350c0 15 11 26 27 26l431 0c16 0 27-11 27-26 0 0 2-328 0-350-1-22-10-29-26-29z m155 378l-431 0 0-350 431 0z m-287-105c37 0 66-29 66-66 0-37-29-66-66-66-37 0-66 29-66 66 0 37 29 66 66 66z m106-26l79 0c8 0 13-5 13-13 0-8-5-14-13-14l-79 0c-8 0-13 6-13 14 0 8 5 13 13 13z m0-53l79 0c8 0 13-5 13-13 0-8-5-13-13-13l-79 0c-8 0-13 5-13 13 0 8 5 13 13 13z"/>
<glyph glyph-name="rules" unicode="&#100;" d="M380 505l-364-364c-4-4-4-11 0-16l111-111c4-4 11-4 16 0l364 365c4 4 4 11 0 16l-111 110c-4 5-11 5-16 0z m93-124l-332-332-91 90 46 45 30-30 15 15-30 31 30 30 30-30 15 15-30 30 30 30 30-30 15 15-30 30 30 30 31-30 15 15-31 30 31 30 30-30 15 15-30 31 30 30 30-30 15 15-30 30 45 45 91-90z"/>
<glyph glyph-name="secondscreen" unicode="&#101;" d="M395 275c-11 0-20-10-20-21l0-188c0-11 9-21 20-21l97 0c11 0 20 10 20 21l0 188c0 11-9 21-20 21z m97-188l-97 0 0 146 97 0z m-134 23l-35 0 0-47-185 0 0 47-92 0c-25 0-46 21-46 47l0 282c0 26 21 47 46 47l369 0c25 0 46-21 46-47l0-147-46 0 0 147-369 0 0-282 312 0z"/>
<glyph glyph-name="level" unicode="&#102;" d="M291 208l25 93-22 5-25-91c-2 0-4 0-7 0-31 0-57-26-57-57 0-32 26-58 57-58 32 0 58 26 58 58 0 21-12 40-29 50z m-35 304c-141 0-256-115-256-256 0-141 115-256 256-256 141 0 256 115 256 256 0 141-115 256-256 256z m0-51c-113 0-205-92-205-205 0-113 92-205 205-205 113 0 205 92 205 205 0 113-92 205-205 205z m-136-158c18 55 71 95 136 95 65 0 118-40 136-95l43 0c-18 76-91 132-179 132-88 0-161-56-179-132z m142-111c-19 0-34-15-34-34 0-19 15-35 34-35 19 0 35 16 35 35 0 19-16 34-35 34z"/>
<glyph glyph-name="custom" unicode="&#103;" d="M229 347c-35 35-90 36-123 3-33-33-53-162-45-172 5-7 139 13 172 46 33 33 31 87-4 123z m-29-72c0-23-19-42-42-42-23 0-42 19-42 42 0 24 19 43 42 43 23 0 42-19 42-43z m-181-189c22-30 61-48 119-48 42 0 77 13 113 37 18 13 70 57 74 60 20 15 35 22 50 22 25 0 49-19 71-51 8-12 16-25 22-38 3-7 6-13 7-17l37 14c-2 4-4 11-9 20-7 15-15 30-24 43-29 42-63 68-104 68-26 0-48-10-74-29-6-5-56-48-73-59-29-20-57-30-90-30-46 0-73 12-88 31-8 11-11 22-11 28l-39 0c0-14 5-33 19-51z m257 230l115 106-59 50-140-83c32-4 35-6 60-26 24-21 22-22 24-47z"/>
<glyph glyph-name="add-folder" unicode="&#104;" d="M493 194l0 161c0 32-25 57-56 57l-244 0c-10 0-39 43-49 43l-87 0c-32 0-57-25-57-57l2-245c0-31 26-57 57-57l306 0c-3 9-5 18-5 27 0 47 39 86 86 86 17 0 34-6 47-15z m-47-23c-26 0-48-22-48-48 0-26 22-47 48-47 26 0 47 21 47 47 0 26-21 48-47 48z m0 19c36 0 66-30 66-67 0-36-30-66-66-66-37 0-67 30-67 66 0 37 30 67 67 67z m7-60l0 22-14 0 0-22-22 0 0-14 22 0 0-21 14 0 0 21 21 0 0 14z"/>
<glyph glyph-name="add-item" unicode="&#105;" d="M317 488l113-113-64 0c-27 0-49 22-49 49z m122-299l0 211-113 112-253 0c-27 0-49-22-49-49l0-390c0-27 22-49 49-49l238 0c-12 18-18 39-18 61 0 61 49 110 109 110 13 0 25-2 37-6z m-37-43c-33 0-61-27-61-61 0-33 28-61 61-61 34 0 61 28 61 61 0 34-27 61-61 61z m0 25c47 0 86-39 86-86 0-47-39-85-86-85-47 0-85 38-85 85 0 47 38 86 85 86z m9-77l0 28-18 0 0-28-27 0 0-18 27 0 0-27 18 0 0 27 28 0 0 18z"/>
<glyph glyph-name="edit" unicode="&#106;" d="M508 390l-118 117c-6 7-18 7-25 0l-320-321 1 0-1 0-44-164c-3-5 0-12 4-17 6-6 14-7 20-3l162 43 321 321c6 6 6 17 0 24z m-454-335l27 96 70-71z"/>
<glyph glyph-name="link" unicode="&#107;" d="M256 512c-141 0-256-115-256-256 0-141 115-256 256-256 141 0 256 115 256 256 0 141-115 256-256 256z m177-154l-75 0c-7 34-20 62-35 93 46-18 87-49 110-93z m-177 103c20-31 38-64 49-103l-98 0c11 36 29 72 49 103z m-197-256c-5 15-8 33-8 51 0 18 3 36 8 51l87 0c-3-18-3-33-3-51 0-18 3-33 3-51z m20-51l75 0c7-34 20-62 35-93-46 18-87 49-110 93z m75 204l-75 0c26 44 64 75 110 93-15-31-28-59-35-93z m102-307c-20 31-38 64-49 103l98 0c-11-36-29-72-49-103z m59 154l-118 0c-2 18-5 33-5 51 0 18 3 33 5 51l120 0c3-18 6-33 6-51 0-18-6-33-8-51z m8-144c15 29 28 59 35 93l75 0c-23-44-64-75-110-93z m46 144c2 18 2 33 2 51 0 18-2 33-2 51l87 0c5-15 7-33 7-51 0-18-2-36-7-51z"/>
<glyph glyph-name="segment" unicode="&#108;" d="M154 108c86 0 155 70 155 156 0 85-69 155-155 155-85 0-154-70-154-155 0-86 69-156 154-156z m0 33c-67 0-121 55-121 123 0 67 54 122 121 122 68 0 122-55 122-122 0-68-54-123-122-123z m195-33c86 0 155 70 155 156 0 85-69 155-155 155-85 0-154-70-154-155 0-86 69-156 154-156z m0 33c-67 0-121 55-121 123 0 67 54 122 121 122 68 0 122-55 122-122 0-68-54-123-122-123z"/>
<glyph glyph-name="settings" unicode="&#109;" d="M439 230c0 8 2 16 2 26 0 10 0 18-2 26l54 43c5 5 5 10 2 15l-51 90c-3 3-8 5-15 3l-64-26c-13 10-29 18-44 26l-10 66c2 8-5 13-10 13l-103 0c-5 0-13-5-13-10l-10-69c-15-5-28-16-43-26l-62 26c-8 2-13 0-18-5l-51-90c-3-3 0-10 5-15l54-41c0-8-3-16-3-26 0-10 0-18 3-26l-54-43c-5-5-5-10-2-15l51-90c2-3 7-5 15-3l64 26c13-10 28-18 44-26l10-66c0-5 5-10 13-10l102 0c5 0 13 5 13 10l10 66c15 8 31 16 44 26l64-26c5-2 12 0 15 5l51 90c3 5 3 13-2 15z m-190-64c-48 0-89 41-89 90 0 49 41 90 89 90 49 0 90-41 90-90 0-49-41-90-90-90z"/>
<glyph glyph-name="login" unicode="&#110;" d="M366 499c-80 0-147-65-147-146 0-12 2-22 4-32l-223-224 0-37 37-36 73 0 36 36 0 37 37 0 0 36 36 0 0 37 74 0 40 40c11-2 21-3 33-3 81 0 146 65 146 146 0 81-65 146-146 146z m-147-256l-182-183 0 37 182 183z m183 110c-20 0-36 16-36 36 0 21 16 37 36 37 20 0 37-16 37-37 0-20-17-36-37-36z"/>
<glyph glyph-name="folder" unicode="&#111;" d="M0 379c0 32 25 57 57 57l87 0c10 0 39-43 49-43l244 0c31 0 56-25 56-57l0-202c0-31-25-56-56-56l-378 0c-31 0-57 25-57 56z"/>
<glyph glyph-name="analythics" unicode="&#112;" d="M271 215c-4-7-7-15-7-24 0-27 22-49 50-49 27 0 49 22 49 49 0 10-3 20-8 27l99 120c3 0 6-1 8-1 28 0 50 22 50 49 0 27-22 49-50 49-27 0-49-22-49-49 0-14 7-28 17-37l-95-114c-6 3-14 5-21 5-9 0-18-3-25-7l-64 64c4 7 6 15 6 24 0 27-22 49-49 49-28 0-50-22-50-49 0-15 7-28 17-37l-91-110c-3 0-6 1-8 1-28 0-50-22-50-49 0-27 22-49 50-49 27 0 49 22 49 49 0 14-7 28-17 37l91 110c3 0 6-1 9-1 9 0 17 3 24 7z m-221-115c14 0 26 12 26 26 0 14-12 25-26 25-15 0-26-11-26-25 0-14 11-26 26-26z m132 191c17 0 30 13 30 30 0 17-13 30-30 30-17 0-31-13-31-30 0-17 14-30 31-30z m132-132c17 0 32 14 32 32 0 17-15 31-32 31-18 0-32-14-32-31 0-18 14-32 32-32z m148 198c17 0 31 13 31 29 0 17-14 30-31 30-16 0-30-13-30-30 0-16 14-29 30-29z"/>
<glyph glyph-name="audio" unicode="&#113;" d="M278 65c3 7 5 14 5 22l0 251 111 28 0 129-154-43 0-309c-13 5-28 8-44 8-47 0-86-29-86-64 0-36 39-65 86-65 38 0 70 18 82 43z"/>
<glyph glyph-name="full" unicode="&#114;" d="M65 512c-35 0-64-29-64-63 0-35 29-64 64-64 35 0 64 29 64 64 0 34-29 63-64 63z m0-190c-35 0-64-29-64-64 0-35 29-63 64-63 35 0 64 28 64 63 0 35-29 64-64 64z m0-191c-35 0-64-28-64-63 0-35 29-64 64-64 35 0 64 29 64 64 0 35-29 63-64 63z m384 254c35 0 64 29 64 64 0 34-29 63-64 63-35 0-64-29-64-63 0-35 29-64 64-64z m-192-254c-35 0-64-28-64-63 0-35 29-64 64-64 35 0 64 29 64 64 0 35-29 63-64 63z m192 0c-35 0-64-28-64-63 0-35 29-64 64-64 35 0 64 29 64 64 0 35-29 63-64 63z m0 191c-35 0-64-29-64-64 0-35 29-63 64-63 35 0 64 28 64 63 0 35-29 64-64 64z m-192 0c-35 0-64-29-64-64 0-35 29-63 64-63 35 0 64 28 64 63 0 35-29 64-64 64z m0 190c-35 0-64-29-64-63 0-35 29-64 64-64 35 0 64 29 64 64 0 34-29 63-64 63z"/>
<glyph glyph-name="logout" unicode="&#115;" d="M489 240c0-32-6-62-18-90-13-29-29-55-50-75-20-21-46-37-75-50-28-12-58-18-90-18-32 0-62 6-90 18-29 13-55 29-75 50-21 20-37 46-50 75-12 28-18 58-18 90 0 37 8 71 25 104 16 33 38 60 68 82 8 6 19 9 29 7 11-1 20-6 25-15 7-8 9-18 7-28-1-11-6-19-15-26-19-15-35-33-45-55-11-21-16-45-16-69 0-21 4-41 12-61 8-19 19-35 34-49 13-14 29-25 48-34 20-7 40-11 61-11 21 0 41 4 61 11 19 9 35 20 48 34 15 14 26 30 34 49 8 20 12 40 12 61 0 24-5 48-16 69-10 22-26 40-45 55-9 7-14 15-15 26-2 10 0 20 7 28 5 9 14 14 26 15 10 2 20-1 28-7 30-22 52-49 68-82 17-33 25-67 25-104z m-194 233l0-194c0-10-4-20-11-27-9-8-17-12-28-12-11 0-19 4-28 12-7 7-11 17-11 27l0 194c0 10 4 20 11 27 9 8 17 12 28 12 11 0 19-4 28-12 7-7 11-17 11-27z"/>
<glyph glyph-name="share" unicode="&#116;" d="M313 356l0 113 199-199-199-199 0 117c-142 0-242-46-313-145 28 142 114 284 313 313z"/>
<glyph glyph-name="star" unicode="&#117;" d="M512 323c0-5-3-10-9-15l-110-109 25-154 0-5c0-5-1-9-3-11-2-3-4-5-8-5-5 0-9 2-13 4l-138 72-138-72c-4-2-8-4-13-4-4 0-7 2-9 5-2 2-3 6-3 11 0 1 0 3 1 5l25 154-111 109c-5 6-8 10-8 15 0 7 6 13 17 14l155 22 69 140c4 9 9 13 15 13 6 0 11-4 15-13l69-140 155-22c11-1 17-7 17-14z"/>
<glyph glyph-name="news" unicode="&#118;" d="M26 288c-14 0-26 12-26 26l0 159c0 15 11 26 26 26l159 0c14 0 26-11 26-26l0-159c0-14-12-26-26-26z m260 0c-8 0-15 7-15 15 0 9 7 15 15 15l211 0c8 0 15-6 15-15 0-8-7-15-15-15z m0 91c-8 0-15 7-15 15 0 8 7 15 15 15l90 0c9 0 22 0 31 0l90 0c8 0 15-7 15-15 0-9-7-15-15-15z m-271-271c-8 0-15 7-15 15 0 8 7 15 15 15l392 0c8 0 15-7 15-15 0-9-7-15-15-15z m0 90c-8 0-15 7-15 15 0 8 7 15 15 15l482 0c8 0 15-7 15-15 0-8-7-15-15-15z m0-181c-8 0-15 7-15 15 0 9 7 15 15 15l482 0c8 0 15-7 15-15 0-8-7-15-15-15z"/>
<glyph glyph-name="game" unicode="&#119;" d="M333 371l0 141-154 0 0-141 77-77z m-192-38l-141 0 0-154 141 0 77 77z m38-192l0-141 154 0 0 141-77 77z m192 192l-77-77 77-77 141 0 0 154z"/>
<glyph glyph-name="badge" unicode="&#120;" d="M169 461l-26-82 70-51c-71-19-123-84-123-161 0-92 74-167 166-167 92 0 166 75 166 167 0 77-52 142-124 161l71 51-27 82z m9 25l8 26 140 0 8-26z m78-379l76-46-20 87 68 58-89 8-35 82-35-82-89-8 68-58-20-87z"/>
<glyph glyph-name="banner" unicode="&#121;" d="M512 186l0 279c0 26-21 47-47 47l-418 0c-26 0-47-21-47-47l0-279c0-25 21-46 47-46l418 0c26 0 47 21 47 46z m-70-116l0 70-46 0 0-70-1 0c-12 0-23-11-23-23 0-13 11-24 23-24l47 0 0 0c12 1 22 11 22 24 0 12-10 22-22 23z m-326 0l0 70-46 0 0-70 0 0c-13 0-23-11-23-23 0-13 10-24 23-24l46 0 0 0c12 1 22 11 22 24 0 12-9 22-22 23z m59 244l58-70 81 105 105-140-326 0z"/>
<glyph glyph-name="gift" unicode="&#122;" d="M235 393c-34 1-80 3-99 13-32 18-47 52-33 79 15 27 52 35 84 18 19-11 47-47 66-75 19 28 47 64 66 75 32 17 69 9 84-18 14-27-1-61-33-79-19-10-65-12-99-13l-18 33z m30 0z m-36-183l-204 0 0-195c0-8 11-15 24-15l414 0c13 0 24 7 24 15l0 195-204 0 0-210-54 0z m-192 179l438 0c13 0 24-11 24-25l0-136-486 0 0 136c0 14 11 25 24 25z m189 0l60 0 0-161-60 0z"/>
<glyph glyph-name="poll" unicode="&#65;" d="M411 465l-98 0c-9 28-35 47-65 47-30 0-56-19-65-47l-98 0c-26 0-47-20-47-46l0-372c0-26 21-47 47-47l326 0c25 0 46 21 46 47l0 372c0 26-21 46-46 46z m-163 0c14 0 23-9 23-23 0-14-9-23-23-23-14 0-23 9-23 23 0 14 9 23 23 23z m-163-418l0 372 46 0 0-19c0-28 24-51 52-51l130 0c28 0 51 23 51 51l0 19 47 0 0-372z m251 235c7 0 12-6 12-12 0-7-5-12-12-12l-183 0c-7 0-12 6-12 12 0 6 5 12 12 12z m0-64c7 0 12-5 12-12 0-6-5-11-12-11l-183 0c-7 0-12 5-12 11 0 7 5 12 12 12z m0-64c7 0 12-6 12-12 0-7-5-12-12-12l-183 0c-7 0-12 6-12 12 0 6 5 12 12 12z"/>
<glyph glyph-name="text" unicode="&#66;" d="M103 290l85 0-45 110z m10 110l-30 0c-9 0-15 2-18 4-4 2-5 6-5 11 0 6 1 10 4 12 3 2 11 4 25 4l59 0c8 0 13-1 16-3 3-3 5-6 7-12l82-204 4 0c7 0 12-1 15-3 3-2 4-6 4-11 0-6-1-10-4-12-2-2-7-4-14-4l-57 0c-11 0-18 2-21 4-3 2-4 6-4 12 0 5 1 9 5 11 3 2 9 3 18 3l20 0-21 50-106 0-18-50 20 0c10 0 16-1 19-3 4-2 5-6 5-11 0-6-1-10-4-12-3-2-10-4-20-4l-55 0c-9 0-15 2-18 4-3 2-4 6-4 12 0 5 1 9 4 11 3 2 9 3 17 3l4 0z m325-125c-8 2-15 4-22 5-7 2-15 2-22 2-21 0-38-3-51-11-12-7-18-17-18-29 0-9 4-17 11-23 8-6 18-10 30-10 18 0 34 5 49 14 15 10 23 19 23 29z m2-66c-12-10-24-18-38-24-13-5-27-8-41-8-21 0-38 6-50 18-13 11-20 26-20 45 0 22 9 39 26 51 17 12 41 18 71 18 8 0 16 0 25-1 8-1 16-3 25-5l0 1c0 16-4 28-12 36-7 7-19 11-35 11-11 0-23-3-37-9-13-5-22-8-26-8-4 0-8 1-10 5-3 3-4 7-4 12 0 8 7 15 23 21 15 6 35 9 59 9 24 0 43-6 56-19 12-12 18-31 18-55l0-95 11 0c10 0 16-1 20-3 3-2 5-6 5-11 0-5-2-9-5-12-2-2-7-4-12-4l-33 0c-4 0-7 2-10 4-2 2-4 6-5 10z m-423-81l0-47 489 0 0 47z"/>
<glyph glyph-name="style" unicode="&#67;" d="M77 167c0 91 170 345 170 345 0 0 171-254 171-345 0-93-76-167-171-167-94 0-170 74-170 167z m96 111c38 55 3-64 10-118 7-53 48-64 12-73-36-8-67 32-67 61 0 29 7 76 45 130z"/>
<glyph glyph-name="good" unicode="&#68;" d="M484 300l-103 0 0 0-233 0 0 0-108 0c-13 0-22-9-22-23l0-7 56-203c4-18 22-34 42-34l292 0c20 0 38 14 42 34l56 203 0 7c0 14-9 23-22 23z m-220-150c-25 0-45 21-45 46 0 25 20 46 45 46 24 0 44-21 44-46 0-25-20-46-44-46z m-44 199l42 63 45-63 39 0-64 87c3 3 4 8 4 12 0 14-11 25-24 25-14 0-25-11-25-25 0-4 2-9 4-13l-60-86 39 0z"/>
<glyph glyph-name="book" unicode="&#69;" d="M438 512l-366 0c-21 0-29-17-29-34l0-447c0-17 8-30 29-30l366 0c17 0 30 13 30 30l0 447c0 17-8 34-30 34z m-12-43l0-297-256 0 0 297z m-341-425l0 85 341 0 0-85z"/>
<glyph glyph-name="puzzle" unicode="&#70;" d="M431 264l0 84c0 14-11 26-25 26l0 1-83 0c-18 1-33 17-33 35 0 9 4 15 8 21 3 8 6 17 6 27 0 30-24 54-54 54-29 0-54-24-54-54 0-10 3-19 8-27l-1 0c5-6 7-12 7-21 0-18-14-34-33-35l-95 0c-14 0-25-13-25-27 0 0 0 0 0-1l0-87c0-9 6-16 14-16 3 0 4 0 5 2 8 2 17 5 26 5 34 0 64-30 64-64 0-36-30-64-64-64-9 0-18 1-26 5-1 0-2 1-5 1-8 0-14-7-14-15l0-87c0 0 0 0 0-1 0-14 11-26 25-26l89 0c7 0 15 6 15 15 0 2-1 3-1 4l0 1c-3 7-3 12-3 18 0 36 28 64 64 64 35 0 64-28 64-64 0-6-1-11-2-18-2-1-2-3-2-5 0-9 7-15 15-15l84 0c14 0 26 12 26 26l0 85c-2 8-7 13-14 13l0 1c-6-1-12-2-17-2-36 0-64 28-64 64 0 36 28 64 64 64 5 0 11-1 17-3l0 2c6 0 11 3 14 10z"/>
<glyph glyph-name="quest" unicode="&#71;" d="M366 372l-3 0-68-27-78 27-72-24c-3-1-5-3-5-7l0-195c0-4 2-6 6-6l3 0 68 27 78-27 72 24c3 1 5 4 5 7l0 195c0 4-2 6-6 6z m-71-207l-78 28 0 154 78-28z m-56 304c4 2 14 2 18 0l171-99c4-2 9-11 9-15l0-198c0-4-5-13-9-15l-171-99c-4-2-14-2-18 0l-171 99c-4 2-8 11-8 15l0 198c0 4 5 13 8 15z m-23 28l-161-93c-18-10-32-34-32-55l0-186c0-21 14-45 32-55l161-93c19-11 46-11 64 0l161 93c18 10 32 34 32 55l0 186c0 21-14 45-32 55l-161 93c-18 11-45 11-64 0z"/>
<glyph glyph-name="guide" unicode="&#72;" d="M498 234l-473 0c-6 0-11-5-11-10l0-144c0-6 5-11 11-11l473 0c6 0 10 5 10 11l0 144c0 5-4 10-10 10z m-10-144l-453 0 0 123 62 0 0-41 20 0 0 41 41 0 0-41 21 0 0 41 41 0 0-41 21 0 0 41 41 0 0-41 20 0 0 41 42 0 0-41 20 0 0 41 41 0 0-41 21 0 0 41 62 0 0-123z m-5 307l-93 62c-1 1-3 1-5 1l-299 0c-28 0-51-23-51-51l0-41c0-29 23-52 51-52l299 0c2 0 4 1 5 2l93 62c6 4 6 13 0 17z m-325 43l181 0c-4-6-6-13-6-21l-175 0z m-61-103l-11 0c-17 0-31 14-31 31l0 41c0 17 14 31 31 31l11 0z m41 0l-21 0 0 103 21 0z m20 0l0 20 175 0c0-7 2-14 6-20z m181 41l-181 0 0 21 181 0c2-4 5-8 8-11-3-3-6-6-8-10z m77-18l-34-23-8 0c-11 0-20 9-20 20 0 12 9 21 20 21 6 0 11 5 11 10 0 6-5 11-11 11-11 0-20 9-20 20 0 12 9 21 20 21l8 0 34-23z m20 13l0 30 23-15z"/>
<glyph glyph-name="brand" unicode="&#73;" d="M274 8c-11-9-29-9-41 0l-174 126c-11 8-21 26-21 41l0 245c0 14 12 29 25 32 0 0 112 27 191 60 65-33 191-61 191-61 13-3 24-16 24-31l0-245c0-14-9-33-20-41z m1 32c-12-8-21-4-21 11 0 0 0 240 0 419 57-29 163-46 163-46 13-2 24-16 24-30l0-207c0-14-9-32-20-41z"/>
<glyph glyph-name="user" unicode="&#74;" d="M256 256c71 0 128 57 128 128 0 71-57 128-128 128-71 0-128-57-128-128 0-71 57-128 128-128z m-5-26c-110 0-202-38-240-82-9-10-11-25-11-39l0-88 512 0 0 88c0 14-8 29-17 39-38 44-134 82-244 82z"/>
<glyph glyph-name="video" unicode="&#75;" d="M427 512l0-57-57 0 0 57-228 0 0-57-57 0 0 57-57 0 0-512 57 0 0 57 57 0 0-57 228 0 0 57 57 0 0-57 57 0 0 512z m-285-398l-57 0 0 57 57 0z m0 114l-57 0 0 56 57 0z m0 113l-57 0 0 57 57 0z m285-227l-57 0 0 57 57 0z m0 114l-57 0 0 56 57 0z m0 113l-57 0 0 57 57 0z"/>
<glyph glyph-name="quiz" unicode="&#76;" d="M184 333c6-4 12-8 19-12 7-4 12-7 14-9 2-2 4-6 4-10 0-3-2-6-4-9-3-2-6-4-10-4-3 0-7 1-12 3-4 2-9 5-15 9-6 4-13 8-20 13-13-6-29-10-49-10-15 0-29 3-42 8-12 5-22 12-31 21-8 10-15 21-19 34-4 12-6 26-6 42 0 15 2 29 6 42 5 13 11 24 20 33 8 9 18 16 30 21 12 5 26 7 42 7 20 0 38-4 53-13 15-8 26-20 34-36 8-15 12-34 12-55 0-32-9-57-26-75z m-32 22c5 6 10 14 12 23 3 9 4 19 4 31 0 14-2 27-7 38-4 11-11 19-20 24-9 6-19 9-30 9-9 0-16-2-23-5-7-3-13-7-18-13-5-6-9-14-12-23-2-9-4-19-4-30 0-23 5-41 16-54 11-12 25-18 41-18 7 0 14 1 21 4-4 3-10 6-16 9-7 4-11 6-13 8-3 2-4 4-4 7 0 3 1 5 3 7 3 3 5 4 8 4 8 0 22-7 42-21z m312 131c7 0 12-5 12-11 0-7-5-12-12-12l-183 0c-7 0-12 5-12 12 0 6 5 11 12 11z m0-307c7 0 12-5 12-12 0-6-5-11-12-11l-183 0c-7 0-12 5-12 11 0 7 5 12 12 12z m0 245c7 0 12-5 12-12 0-6-5-11-12-11l-183 0c-7 0-12 5-12 11 0 7 5 12 12 12z m0-308c7 0 12-6 12-12 0-7-5-12-12-12l-183 0c-7 0-12 6-12 12 0 6 5 12 12 12z m0 244c7 0 12-6 12-12 0-6-5-11-12-11l-183 0c-7 0-12 5-12 11 0 7 5 12 12 12z m0-309c7 0 12-5 12-12 0-6-5-11-12-11l-183 0c-7 0-12 5-12 11 0 7 5 12 12 12z m-290-25l-9 25-82 0-10-25c-4-10-7-17-9-21-3-3-7-5-13-5-6 0-10 2-14 6-4 3-6 8-6 12 0 3 1 6 1 9 1 3 3 7 5 12l51 131c2 3 4 8 6 13 2 5 4 10 6 13 3 4 6 6 9 9 4 2 9 3 15 3 5 0 10-1 14-3 4-3 7-5 9-9 2-3 4-7 6-11 1-3 3-9 6-15l52-130c5-10 7-17 7-21 0-5-2-9-6-13-4-4-9-6-14-6-4 0-6 1-9 2-2 1-4 2-5 4-2 2-4 5-5 9-2 4-4 8-5 11z m-80 56l60 0-31 83z"/>
<glyph glyph-name="home" unicode="&#77;" d="M28 512l171 0c16 0 29-13 29-28l0-114c0-16-13-29-29-29l-171 0c-15 0-28 13-28 29l0 114c0 15 13 28 28 28z m285-341l171 0c15 0 28-13 28-29l0-114c0-15-13-28-28-28l-171 0c-16 0-29 13-29 28l0 114c0 16 13 29 29 29z m0 341l171 0c15 0 28-13 28-28l0-242c0-16-13-29-28-29l-171 0c-16 0-29 13-29 29l0 242c0 15 13 28 29 28z m-285-213l171 0c16 0 29-13 29-29l0-242c0-15-13-28-29-28l-171 0c-15 0-28 13-28 28l0 242c0 16 13 29 28 29z"/>
<glyph glyph-name="buy" unicode="&#78;" d="M394 336c0 5-2 10-6 14-4 3-8 5-14 5-5 0-10-2-14-5l-45-45 0 90c0 5-2 10-6 14-4 3-8 5-13 5-6 0-11-2-14-5-4-4-7-9-7-14l0-90-45 45c-3 3-8 5-14 5-5 0-9-2-13-5-4-4-6-9-6-14 0-5 2-10 6-14l79-79c3-4 8-6 14-6 5 0 9 2 13 6l79 79c4 4 6 9 6 14z m-197-256c0-11-3-21-12-28-8-8-16-11-27-11-12 0-20 3-28 11-7 7-12 17-12 28 0 11 5 20 12 28 8 7 16 12 28 12 11 0 19-5 27-12 9-8 12-17 12-28z m275 0c0-11-3-21-12-28-7-8-16-11-27-11-11 0-20 3-27 11-8 7-12 17-12 28 0 11 4 20 12 28 7 7 16 12 27 12 11 0 20-5 27-12 9-8 12-17 12-28z m40 334l0-157c0-5-2-9-5-13-4-4-8-6-13-7l-321-37c0-2 1-4 1-7 1-2 2-6 2-8 1-2 1-5 1-6 0-3-2-11-7-21l283 0c5 0 10-2 14-5 3-4 5-9 5-14 0-5-2-10-5-14-4-3-9-5-14-5l-315 0c-6 0-10 2-14 5-4 4-6 9-6 14 0 3 1 7 4 12 2 5 5 12 9 18 3 8 6 11 6 12l-54 253-63 0c-5 0-10 2-14 6-4 3-6 9-6 14 0 6 2 10 6 13 4 4 9 7 14 7l79 0c3 0 5-1 9-3 2-1 4-3 6-4 1-2 2-4 3-7 1-4 2-7 2-9 1-2 1-5 3-9 1-4 1-6 1-8l369 0c5 0 10-2 14-6 4-4 6-8 6-14z"/>
<glyph glyph-name="check" unicode="&#79;" d="M319 343l-87-87-25 25c-15 16-43 16-59 0-16-16-17-42-1-59l62-61c6-6 14-9 23-9 9 0 16 3 24 9l68 69c0 0 2 1 2 2l52 52c1 0 2 1 3 2 13 17 12 41-4 56-15 15-40 17-58 1z m-63 169c-141 0-256-115-256-256 0-142 115-257 256-257 141 0 256 115 256 257 0 141-115 256-256 256z m0-474c-120 0-218 97-218 218 0 120 98 218 218 218 120 0 218-98 218-218 0-121-98-218-218-218z"/>
<glyph glyph-name="image" unicode="&#80;" d="M512 122l0 279c0 26-21 47-47 47l-418 0c-26 0-47-21-47-47l0-279c0-25 21-46 47-46l418 0c26 0 47 21 47 46z m-337 128l58-70 81 105 105-140-326 0z"/>
<glyph glyph-name="read" unicode="&#81;" d="M0 481l0-379c0-17 14-31 31-34 54-5 157-17 194-42 3-3 5-6 8-9l12-11c5-6 17-6 22 0l12 11c3 3 5 6 8 9 37 28 140 39 194 42 17 3 31 17 31 34l0 379c0 17-14 31-31 31-57-3-168-14-225-54-57 40-168 51-225 54-17 0-31-14-31-31z m228-424c-67 29-150 39-200 43l0 384c60-4 150-20 200-56z m256 43c-50-4-133-14-200-43l0 371c20 16 50 26 80 36 27 6 53 13 80 16 13 0 26 4 40 4z"/>
<glyph glyph-name="visit" unicode="&#82;" d="M256 512c-100 0-179-79-179-179 0-133 179-333 179-333 0 0 179 200 179 333 0 100-79 179-179 179z m0-243c-36 0-64 28-64 64 0 36 28 64 64 64 36 0 64-28 64-64 0-36-28-64-64-64z"/>
<glyph glyph-name="visit-detail" unicode="&#83;" d="M202 120c-80-6-138-30-138-59 0-34 80-61 183-61 102 0 183 27 183 61 0 29-58 53-138 59-26-33-45-55-45-55 0 0-19 22-45 55z m45 392c-79 0-142-63-142-142 0-106 142-264 142-264 0 0 142 158 142 264 0 79-63 142-142 142z m0-193c-29 0-51 22-51 51 0 28 22 51 51 51 28 0 51-23 51-51 0-29-23-51-51-51z"/>
<glyph glyph-name="register" unicode="&#84;" d="M402 341l-24 0 0 49c0 68-54 122-122 122-68 0-122-54-122-122l0-49-24 0c-27 0-49-22-49-48l0-244c0-27 22-49 49-49l292 0c27 0 49 22 49 49l0 244c0 26-22 48-49 48z m-146-219c-27 0-49 22-49 49 0 26 22 48 49 48 27 0 49-22 49-48 0-27-22-49-49-49z m-76 219l0 49c0 42 35 76 76 76 41 0 76-34 76-76l0-49z"/>
<glyph glyph-name="info" unicode="&#85;" d="M261 428c95 0 173-77 173-172 0-95-78-172-173-172-94 0-172 77-172 172 0 95 78 172 172 172z m0 72c-134 0-243-109-243-244 0-135 109-244 243-244 135 0 244 109 244 244 0 135-109 244-244 244z m0-373c-20 0-35 16-35 34l0 95c0 20 15 34 35 34 21 0 36-15 36-34l0-95c0-18-17-34-36-34z m0 258c19 0 35-15 35-33 0-18-16-33-35-33-19 0-34 15-34 33 0 18 15 33 34 33z"/>
<glyph glyph-name="check-o" unicode="&#86;" d="M319 343l-87-87-25 25c-15 16-43 16-59 0-16-16-17-42-1-59l62-61c6-6 14-9 23-9 9 0 16 3 24 9l68 69c0 0 2 1 2 2l52 52c1 0 2 1 3 2 13 17 12 41-4 56-15 15-40 17-58 1z m37-43l-117-117c-3-2-7-3-11 1l-57 57c-6 6-6 15 0 21 3 2 7 4 11 4 3 0 7-1 10-4l33-33c5-5 13-5 18 0l91 92c6 5 15 5 21-1 5-6 5-14 1-20z m-100 212c-141 0-256-115-256-256 0-142 115-257 256-257 141 0 256 115 256 257 0 141-115 256-256 256z m0-474c-120 0-218 97-218 218 0 120 98 218 218 218 120 0 218-98 218-218 0-121-98-218-218-218z"/>
<glyph glyph-name="click" unicode="&#87;" d="M0 224l32 0 0 64-32 0z m32 96l0-32 64 0 0 32z m128-96l0 256-32 0 0-192-32 0 0-32 32 0 0-32z m0 256l64 0 0 32-64 0z m96-128l64 0 0 32-64 0 0 96-32 0 0-192 32 0z m96-64l0 64-32 0 0-64z m0 64l64 0 0 32-64 0z m96-32l32 0 0 32-64 0 0-64 32 0z m32 0l0-224 32 0 0 224z m-32-224l0-64 32 0 0 64z m0-64l-256 0 0-32 256 0z m-256 32l-32 0 0-32 32 0z m-32 32l-32 0 0-32 32 0z m-32 32l-32 0 0-32 32 0z m-32 64l-32 0 0-64 32 0z m-32 32l-32 0 0-32 32 0z"/>
<glyph glyph-name="item" unicode="&#88;" d="M38 461c0 28 23 51 52 51l265 0 119-118 0-343c0-28-23-51-52-51l-332 0c-29 0-52 23-52 51z m308 25l118-118-67 0c-29 0-51 23-51 51z"/>
<glyph glyph-name="reward" unicode="&#89;" d="M269 85l64 0c12 0 21-9 21-21l0-64-213 0 0 64c0 12 10 21 21 21l64 0 0 107c-83 6-149 75-149 160l0 134c0 14 11 26 25 26l290 0c15 0 26-12 26-26l0-134c0-85-66-154-149-160z m-22-64c12 0 22 10 22 22 0 11-10 21-22 21-11 0-21-10-21-21 0-12 10-22 21-22z"/>
<glyph glyph-name="coupon" unicode="&#90;" d="M461 448l-410 0c-28 0-51-23-51-51l0-282c0-28 23-51 51-51l410 0c28 0 51 23 51 51l0 282c0 28-23 51-51 51z m-299-29c39 0 70-31 70-69 0-39-31-70-70-70-38 0-69 31-69 70 0 38 31 69 69 69z m-45-319c-3 0-7 1-9 4-5 5-5 13 0 18l294 294c5 5 13 5 18 0 5-5 5-13 0-18l-294-294c-2-3-6-4-9-4z m250 1c-38 0-69 31-69 69 0 39 31 70 69 70 39 0 70-31 70-70 0-38-31-69-70-69z m-161 249c0-25-20-44-44-44-24 0-43 19-43 44 0 24 19 43 43 43 24 0 44-19 44-43z m205-180c0-24-20-43-44-43-24 0-43 19-43 43 0 24 19 44 43 44 24 0 44-20 44-44z"/>
</font>
</defs>
</svg>
