<?xml version="1.0" encoding="UTF-8" standalone="no"?>
<svg width="74px" height="74px" viewBox="0 0 74 74" version="1.1" xmlns="http://www.w3.org/2000/svg" xmlns:xlink="http://www.w3.org/1999/xlink">
    <!-- Generator: Sketch 3.7.1 (28215) - http://www.bohemiancoding.com/sketch -->
    <title>simbol-subir-foto</title>
    <desc>Created with Sketch.</desc>
    <defs></defs>
    <g id="Widget-Flotante" stroke="none" stroke-width="1" fill="none" fill-rule="evenodd" opacity="0.7">
        <g id="Profile-Score-Units-1" transform="translate(-37.000000, -37.000000)" fill="#FFFFFF">
            <g id="Perfil">
                <g id="simbol-subir-foto" transform="translate(37.000000, 37.000000)">
                    <g transform="translate(0.500000, 0.500000)" id="Group">
                        <g>
                            <path d="M2.3582673,47.8839444 L22.0388836,47.8839444 C22.6137013,47.8839444 22.9728857,47.261608 22.6854004,46.7637694 L6.19535849,18.2141887 C5.90749057,17.7157379 5.18973375,17.7180335 4.90102411,18.2160252 C1.78452096,23.5910901 0,29.8346562 0,36.4951792 C0,40.2784004 0.576118449,43.92687 1.64464256,47.3583291 C1.74189937,47.67076 2.03099161,47.8839444 2.3582673,47.8839444 L2.3582673,47.8839444 Z" id="Shape"></path>
                            <path d="M36.5079581,7.65199162e-05 L36.4950262,7.65199162e-05 C25.8970943,7.65199162e-05 16.3546017,4.51788889 9.68742138,11.7321101 C9.46505451,11.9726887 9.42472851,12.3298836 9.58855765,12.613696 L19.4196069,29.6415199 C19.7070922,30.1395881 20.4259203,30.1392055 20.7130996,29.6409843 L37.1504193,1.11948637 C37.4359916,0.623560797 37.0804801,0.000229559748 36.5079581,7.65199162e-05 L36.5079581,7.65199162e-05 Z" id="Shape"></path>
                            <path d="M70.6398197,25.1318952 L50.9661667,25.1318952 C50.3913491,25.1318952 50.0320881,25.7543082 50.3196499,26.2519937 L66.7971426,54.7717317 C67.0851635,55.2701824 67.8029969,55.2677338 68.0915535,54.7698187 C71.2064497,49.3956719 72.9902055,43.1537128 72.9902055,36.4951792 C72.9902055,32.7214465 72.4170713,29.0818532 71.353674,25.6579696 C71.2566468,25.3452327 70.9673249,25.1318952 70.6398197,25.1318952 L70.6398197,25.1318952 Z" id="Shape"></path>
                            <path d="M68.1236153,18.2760933 C63.1033732,9.57960482 54.5994853,3.14718763 44.5188281,0.88556499 C44.1991279,0.813865828 43.8697862,0.956958071 43.705957,1.2406174 L33.8675618,18.2812201 C33.580153,18.7790587 33.939414,19.4013187 34.5143847,19.4011656 L67.4753386,19.3932075 C68.0483197,19.3930545 68.4101824,18.772478 68.1236153,18.2760933 L68.1236153,18.2760933 Z" id="Shape"></path>
                            <path d="M38.4335052,53.5900346 L5.52856394,53.6217138 C4.95542977,53.622173 4.59410273,54.2431321 4.88105241,54.7392107 C9.89700943,63.4124371 18.3793952,69.8293208 28.4341122,72.0962233 C28.7538889,72.1683816 29.0837662,72.0252128 29.2476719,71.7414004 L39.0807107,54.7099036 C39.3682725,54.2119119 39.0085524,53.5894224 38.4335052,53.5900346 L38.4335052,53.5900346 Z" id="Shape"></path>
                            <path d="M53.572282,43.3427935 C53.2850262,42.845108 52.5667338,42.845108 52.2792484,43.3426405 L35.8006845,71.8698008 C35.5141939,72.3658029 35.8697055,72.9893637 36.442457,72.9901289 L36.4951027,72.9901289 C47.0947945,72.9901289 56.6385881,68.4709392 63.3059214,61.254652 C63.5282883,61.0139969 63.5685377,60.6568784 63.4048616,60.3731426 L53.572282,43.3427935 L53.572282,43.3427935 Z" id="Shape"></path>
                        </g>
                    </g>
                </g>
            </g>
        </g>
    </g>
</svg>