<?xml version="1.0" encoding="UTF-8" standalone="no"?>
<svg width="20px" height="20px" viewBox="0 0 20 20" version="1.1" xmlns="http://www.w3.org/2000/svg" xmlns:xlink="http://www.w3.org/1999/xlink" xmlns:sketch="http://www.bohemiancoding.com/sketch/ns">
    <!-- Generator: Sketch 3.4 (15575) - http://www.bohemiancoding.com/sketch -->
    <title>ic-quest</title>
    <desc>Created with Sketch.</desc>
    <defs>
        <circle id="path-1" cx="10" cy="10" r="10"></circle>
    </defs>
    <g id="Page-1" stroke="none" stroke-width="1" fill="none" fill-rule="evenodd" sketch:type="MSPage">
        <g id="ic-quest" sketch:type="MSLayerGroup">
            <circle id="Oval" fill="#7ECF51" sketch:type="MSShapeGroup" cx="10" cy="10" r="10"></circle>
            <g id="Clipped">
                <mask id="mask-2" sketch:name="a" fill="white">
                    <use xlink:href="#path-1"></use>
                </mask>
                <g id="a"></g>
                <g id="Group" mask="url(#mask-2)" stroke="#FFFFFF" stroke-width="2" sketch:type="MSShapeGroup" opacity="0.3">
                    <g transform="translate(-3.000000, -3.000000)" id="Shape">
                        <path d="M16,0.999 L0.999,16"></path>
                        <path d="M12,0.936 L0.936,12"></path>
                    </g>
                </g>
            </g>
            <path d="M10,2.5 C14.136,2.5 17.5,5.864 17.5,10 C17.5,14.136 14.136,17.5 10,17.5 C5.864,17.5 2.5,14.136 2.5,10 C2.5,5.864 5.864,2.5 10,2.5 L10,2.5 Z M10,1.5 C5.305,1.5 1.5,5.305 1.5,10 C1.5,14.695 5.305,18.5 10,18.5 C14.695,18.5 18.5,14.695 18.5,10 C18.5,5.305 14.695,1.5 10,1.5 L10,1.5 Z" id="Shape" opacity="0.248484142" fill="#000000" sketch:type="MSShapeGroup"></path>
            <path d="M13.7777778,6 L13.6888889,6 L11.3333333,6.93333333 L8.66666667,6 L6.17777778,6.84444444 C6.08888889,6.88888889 6,6.93333333 6,7.06666667 L6,13.7777778 C6,13.9111111 6.08888889,14 6.22222222,14 L6.31111111,14 L8.66666667,13.0666667 L11.3333333,14 L13.8222222,13.1555556 C13.9111111,13.1111111 14,13.0222222 14,12.9333333 L14,6.22222222 C14,6.08888889 13.9111111,6 13.7777778,6 L13.7777778,6 Z M11.3333333,13.1111111 L8.66666667,12.1777778 L8.66666667,6.88888889 L11.3333333,7.82222222 L11.3333333,13.1111111 L11.3333333,13.1111111 Z" id="Shape" opacity="0.251166045" fill="#000000" sketch:type="MSShapeGroup"></path>
        </g>
    </g>
</svg>