<svg width="10px" height="10px" viewBox="0 0 10 10" version="1.1" xmlns="http://www.w3.org/2000/svg" xmlns:xlink="http://www.w3.org/1999/xlink" xmlns:sketch="http://www.bohemiancoding.com/sketch/ns">
        <path d="M6.15555556,6.99444444 L7.59444444,5.55555556 L2.22222222,5.55555556 L2.22222222,4.44444444 L7.59444444,4.44444444 L6.15555556,3.00555556 L6.94444444,2.22222222 L9.72222222,5 L6.94444444,7.77777778 L6.15555556,6.99444444 L6.15555556,6.99444444 Z M8.88888889,0 C9.50253861,0 10,0.497461389 10,1.11111111 L10,3.70555556 L8.88888889,2.59444444 L8.88888889,1.11111111 L1.11111111,1.11111111 L1.11111111,8.88888889 L8.88888889,8.88888889 L8.88888889,7.40555556 L10,6.29444444 L10,8.88888889 C10,9.50253861 9.50253861,10 8.88888889,10 L1.11111111,10 C0.494444444,10 0,9.5 0,8.88888889 L0,1.11111111 C0,0.494444444 0.494444444,0 1.11111111,0 L8.88888889,0 L8.88888889,0 Z" id="Shape" fill="#000000" sketch:type="MSShapeGroup"></path>
</svg>